<svg xmlns="http://www.w3.org/2000/svg" width="125" height="83.475" viewBox="0 0 125 83.475">
  <g id="Group_1" data-name="Group 1" transform="translate(-244.6 -221.262)">
    <path id="Icon_fa-solid-barcode" data-name="Icon fa-solid-barcode" d="M4.472,2.25A4.461,4.461,0,0,0,0,6.722V81.254a4.461,4.461,0,0,0,4.472,4.472H7.453a4.461,4.461,0,0,0,4.472-4.472V6.722A4.461,4.461,0,0,0,7.453,2.25Zm16.4,0a2.99,2.99,0,0,0-2.981,2.981V82.744a2.981,2.981,0,1,0,5.963,0V5.231A2.99,2.99,0,0,0,20.869,2.25Zm13.416,0a4.461,4.461,0,0,0-4.472,4.472V81.254a4.461,4.461,0,0,0,4.472,4.472h2.981a4.461,4.461,0,0,0,4.472-4.472V6.722A4.461,4.461,0,0,0,37.266,2.25Zm17.888,0A4.461,4.461,0,0,0,47.7,6.722V81.254a4.461,4.461,0,0,0,4.472,4.472h2.981a4.461,4.461,0,0,0,4.472-4.472V6.722A4.461,4.461,0,0,0,55.153,2.25Zm31.3,4.472V81.254a4.461,4.461,0,0,0,4.472,4.472h2.981A4.461,4.461,0,0,0,95.4,81.254V6.722A4.461,4.461,0,0,0,90.929,2.25H87.947A4.461,4.461,0,0,0,83.476,6.722ZM71.55,5.231V82.744a2.981,2.981,0,0,0,5.963,0V5.231a2.981,2.981,0,0,0-5.963,0Z" transform="translate(259.4 219.012)" fill="#fff"/>
    <line id="Line_1" data-name="Line 1" x2="117" transform="translate(248.6 263)" fill="none" stroke="rgba(255,0,0,0.29)" stroke-linecap="round" stroke-width="8"/>
  </g>
</svg>
