<svg xmlns="http://www.w3.org/2000/svg" width="30" height="30.595" viewBox="0 0 30 30.595">
  <g id="Icon_akar-home-alt1" data-name="Icon akar-home-alt1" transform="translate(-3 -2.405)">
    <path id="Path_36" data-name="Path 36" d="M31.5,28.5V18.4a6,6,0,0,0-1.868-4.35L20.067,4.965a3,3,0,0,0-4.132,0L6.367,14.05A6,6,0,0,0,4.5,18.4V28.5a3,3,0,0,0,3,3h21A3,3,0,0,0,31.5,28.5Z" fill="none" stroke="#000" stroke-linecap="round" stroke-linejoin="round" stroke-width="3"/>
    <path id="Path_37" data-name="Path 37" d="M13.5,22.5a3,3,0,0,1,3-3h3a3,3,0,0,1,3,3v9h-9Z" fill="none" stroke="#000" stroke-linecap="round" stroke-linejoin="round" stroke-width="3"/>
  </g>
</svg>
