<svg xmlns="http://www.w3.org/2000/svg" width="30.378" height="31.3" viewBox="0 0 30.378 31.3">
  <g id="Icon_akar-key" data-name="Icon akar-key" transform="translate(-1.5 -1.497)">
    <path id="Path_30" data-name="Path 30" d="M11.212,25.638l2.737-2.83h2.737l1.861-1.924a8.754,8.754,0,0,0,10.465-3.8A9.43,9.43,0,0,0,27.763,5.692,8.68,8.68,0,0,0,16.74,4.414a9.354,9.354,0,0,0-3.662,10.822L3,25.638V31.3H8.475l2.737-2.83Z" transform="translate(0 0)" fill="none" stroke="#d0d4d3" stroke-linecap="round" stroke-linejoin="round" stroke-width="3"/>
    <path id="Path_31" data-name="Path 31" d="M27,10.5A1.5,1.5,0,1,1,25.5,9,1.5,1.5,0,0,1,27,10.5Z" transform="translate(-2.042 -0.378)" fill="none" stroke="#d0d4d3" stroke-linecap="round" stroke-linejoin="round" stroke-width="3"/>
  </g>
</svg>
