<svg xmlns="http://www.w3.org/2000/svg" width="29.149" height="29.202" viewBox="0 0 29.149 29.202">
  <path id="Icon_feather-phone" data-name="Icon feather-phone" d="M29.314,22.615v3.944a2.629,2.629,0,0,1-2.866,2.629A26.017,26.017,0,0,1,15.1,25.152a25.636,25.636,0,0,1-7.888-7.888,26.017,26.017,0,0,1-4.036-11.4A2.629,2.629,0,0,1,5.795,3H9.739a2.629,2.629,0,0,1,2.629,2.261,16.88,16.88,0,0,0,.92,3.694,2.629,2.629,0,0,1-.592,2.774l-1.67,1.67a21.035,21.035,0,0,0,7.888,7.888l1.67-1.67a2.629,2.629,0,0,1,2.774-.592,16.88,16.88,0,0,0,3.694.92,2.629,2.629,0,0,1,2.261,2.669Z" transform="translate(-1.667 -1.5)" fill="none" stroke="#d0d4d3" stroke-linecap="round" stroke-linejoin="round" stroke-width="3"/>
</svg>
