<svg xmlns="http://www.w3.org/2000/svg" width="28.672" height="28.672" viewBox="0 0 28.672 28.672">
  <g id="Icon_akar-receipt" data-name="Icon akar-receipt" transform="translate(-3 -3)">
    <path id="Path_1" data-name="Path 1" d="M27.319,30.172H10.2a5.7,5.7,0,0,1-5.7-5.7V7.352A2.852,2.852,0,0,1,7.352,4.5H21.614a2.852,2.852,0,0,1,2.852,2.852V25.893C24.467,28.256,24.956,30.172,27.319,30.172Z" fill="none" stroke="#58733f" stroke-linecap="round" stroke-linejoin="round" stroke-width="3"/>
    <path id="Path_2" data-name="Path 2" d="M31.2,14.852A2.852,2.852,0,0,0,28.352,12H25.5V26.975c0,1.968.884,3.565,2.852,3.565s2.852-1.6,2.852-3.565Z" transform="translate(-1.033 -0.369)" fill="none" stroke="#58733f" stroke-linecap="round" stroke-linejoin="round" stroke-width="3"/>
    <path id="Path_3" data-name="Path 3" d="M19.057,16.2H10.5m8.557-5.7H10.5m4.279,11.41H10.5" transform="translate(-0.295 -0.295)" fill="none" stroke="#58733f" stroke-linecap="round" stroke-width="3"/>
  </g>
</svg>
